<svg fill="#000000" version="1.1" id="Capa_1" xmlns="http://www.w3.org/2000/svg" xmlns:xlink="http://www.w3.org/1999/xlink" 
	 width="800px" height="800px" viewBox="0 0 412.086 412.086"
	 xml:space="preserve">
<g>
	<g>
		<path d="M197.357,374.88c-12.24-12.24-26.316-23.256-41.616-30.601c-4.284-2.447-10.404,0.612-10.404,6.12
			c0,7.344-0.612,14.688-1.224,22.645c-42.229-7.956-76.5-18.36-100.98-58.752c-22.032-36.721-24.479-83.845-18.359-125.46
			c6.119-41.004,22.644-82.008,50.184-113.22c6.12-6.732,12.852-12.852,19.584-17.748c8.568,8.568,22.032,11.628,34.271,10.404
			c5.509-0.612,5.509-7.956,0-8.568c-7.955-1.224-15.911-3.672-21.42-9.18c9.181-4.284,18.973-7.344,29.376-9.18
			c6.12,9.792,16.524,17.748,27.54,20.196c4.896,1.224,8.568-6.12,3.673-8.568c-5.509-3.06-11.017-7.344-15.301-12.852
			c9.181,0,18.36,0.612,28.152,2.448c5.508,1.224,10.404-7.344,4.284-10.404c-10.404-4.896-20.196-7.344-29.988-8.568
			c4.284-4.284,8.568-7.956,14.076-10.404c7.344-3.672,1.836-15.3-5.508-12.852c-11.628,3.672-19.584,14.076-27.54,22.644
			c-12.853,1.224-25.093,5.508-36.721,12.24c-0.611-8.568,5.509-16.524,4.896-25.092c0-3.672-4.284-6.732-7.956-4.896
			c-11.016,7.344-12.24,24.48-9.18,37.944C44.968,75,17.429,136.812,10.084,183.324c-14.076,86.904,28.764,208.08,134.64,202.572
			c0.612,3.672,1.225,7.956,1.836,11.628c0.612,2.448,3.061,3.672,5.509,3.672c0.611,3.672,3.672,6.732,8.567,4.896
			c12.853-4.284,23.868-13.464,34.884-20.809C199.193,383.447,200.417,377.939,197.357,374.88z"/>
		<path d="M274.468,23.592c0.612-4.284,0.612-8.568,0.612-12.852c0-4.896-4.284-7.344-8.567-6.12
			c-18.36,3.06-36.108,9.792-53.245,16.524c-5.508,2.448-6.731,9.18-1.836,12.24c11.017,7.344,23.257,17.136,35.497,22.032
			c2.447,1.224,5.508,0.612,7.344-1.224c0.611,0,0.611,0.612,1.224,0.612c1.836,1.224,3.672,1.224,4.896,0
			c1.836,0.612,4.283,0,4.896-2.448c2.448-4.896,4.284-10.404,6.12-15.3c156.06,5.508,148.104,260.712,39.78,324.972
			c0,0,0,0-0.612-0.611c-9.18-6.12-17.748-13.464-27.54-18.973c-3.672-2.447-8.568,3.061-4.896,6.12
			c7.344,6.12,14.075,12.853,21.42,18.973c-7.345,3.06-15.3,5.508-23.256,7.344c-7.956-8.568-15.912-17.137-26.316-23.256
			c-4.284-3.061-9.792,3.672-5.508,7.344c6.12,4.896,11.016,11.016,15.912,17.136c-7.956,0-15.912-0.612-25.093-2.448
			c-6.731-1.224-9.18,7.956-2.447,9.792c8.567,2.448,16.523,4.284,25.092,4.896c-4.896,4.284-10.404,8.567-17.136,11.016
			c-7.345,3.061-1.836,15.3,5.508,12.24c12.24-4.284,22.644-14.688,31.212-23.868c9.18-1.224,17.748-3.06,25.704-6.12
			c-0.612,3.061-1.225,6.12-1.836,9.792c-1.225,6.12-4.284,11.017-1.836,16.524c0.611,1.836,4.284,3.06,6.12,2.448
			c10.403-3.672,10.403-24.48,11.016-33.66c0-0.612,0-1.225,0-1.836C432.977,311.231,448.277,32.771,274.468,23.592z M236.525,29.1
			c-0.612,0-1.225,0.612-1.836,1.224l-0.612,0.612c-1.224-0.612-2.448-1.224-3.672-1.836c2.448-1.224,4.896-1.836,7.344-2.448
			C237.749,26.652,237.136,27.875,236.525,29.1z"/>
	</g>
</g>
</svg>